<svg width="220" height="64" viewBox="0 0 220 64" fill="none" xmlns="http://www.w3.org/2000/svg"><rect width="64" height="64" rx="18" fill="#E7F7EF"/><path d="M32 11c5 0 10 4 10 10-5 0-10-4-10-10Zm0 0c-5 0-10 4-10 10 5 0 10-4 10-10Z" fill="#66B32E"/><path d="M32 20v21" stroke="#007A4D" stroke-width="4" stroke-linecap="round"/><path d="M16 30c5 0 10 4 10 10s-5 10-10 10C11 50 7 46 7 40s4-10 9-10Zm32 0c5 0 9 4 9 10s-4 10-9 10c-5 0-10-4-10-10s5-10 10-10Z" fill="#007A4D"/><path d="M20 50c5 4 19 4 24 0" stroke="#0AA66E" stroke-width="4" stroke-linecap="round"/><text x="76" y="29" font-size="24" font-weight="800" fill="#064E3B" font-family="Inter,Arial">SPK MBG</text><text x="76" y="47" font-size="10" fill="#334155" font-family="Inter,Arial">Sistem Pendukung Keputusan</text><text x="76" y="59" font-size="10" fill="#334155" font-family="Inter,Arial">Menu Makan Bergizi Gratis</text></svg>